<?xml version="1.0" encoding="UTF-8"?>
<svg width="22px" height="22px" viewBox="0 0 22 22" version="1.1" xmlns="http://www.w3.org/2000/svg" xmlns:xlink="http://www.w3.org/1999/xlink">
    <!-- Generator: Sketch 53.2 (72643) - https://sketchapp.com -->
    <title>gg</title>
    <desc>Created with Sketch.</desc>
    <g id="09_Personal_сabinet" stroke="none" stroke-width="1" fill="none" fill-rule="evenodd">
        <g id="09_BK24_RU_Personal_сabinet-768px" transform="translate(-93.000000, -1155.000000)">
            <g id="Group-4" transform="translate(0.000000, 126.000000)">
                <g id="Header-Copy-2" transform="translate(0.000000, 816.000000)">
                    <g id="Stacked-Group" transform="translate(92.000000, 104.000000)">
                        <g id="Group-Copy-3" transform="translate(0.000000, 96.000000)">
                            <g id="Atoms-/-Icons-/-24x24/Socials/Profile/google-disabled" transform="translate(0.000000, 12.000000)">
                                <g id="Group">
                                    <rect id="Rectangle" x="0" y="0" width="24" height="24"></rect>
                                    <g id="search-(2)" transform="translate(1.200000, 1.200000)" fill="#727B88">
                                        <path d="M4.72643438,8.713575 C4.50212344,9.36752344 4.37986406,10.0695234 4.37986406,10.8 C4.37994844,11.5927875 4.52355469,12.3523734 4.78701563,13.05315 C5.69906719,15.4873266 8.04718125,17.2200937 10.8,17.2200937 C11.9832328,17.2200937 13.0917516,16.9002281 14.0429531,16.3418344 C15.3057938,15.601275 16.2926438,14.4423422 16.8124781,13.0549641 L11.0374313,13.0549641 L11.0374313,8.782425 L16.8967266,8.782425 L21.4112953,8.782425 C21.5353266,9.43574063 21.6,10.1104453 21.6,10.8 C21.6,11.5732125 21.5187047,12.3274406 21.3638344,13.0549641 C20.8380938,15.5306531 19.4643422,17.692425 17.5613063,19.2222281 C15.7104562,20.7098859 13.3593469,21.6 10.8,21.6 C6.68709844,21.6 3.11124375,19.3011609 1.28709844,15.9181453 C0.465834375,14.3948391 4.70734562e-14,12.6520313 4.70734562e-14,10.8 C4.70734562e-14,9.00909844 0.43554375,7.32024844 1.207575,5.83318125 C3.00501563,2.36768906 6.62596875,1.09245946e-13 10.8,1.09245946e-13 C13.4204766,1.09245946e-13 15.8231813,0.933440625 17.6936063,2.4863625 L14.1948703,5.350725 C13.210425,4.73537813 12.046725,4.37990625 10.8,4.37990625 C7.98487031,4.37990625 5.59283906,6.19215469 4.72647656,8.713575 Z" id="Combined-Shape"></path>
                                    </g>
                                </g>
                            </g>
                        </g>
                    </g>
                </g>
            </g>
        </g>
    </g>
</svg>