<?xml version="1.0" encoding="UTF-8"?>
<svg width="24px" height="24px" viewBox="0 0 24 24" version="1.1" xmlns="http://www.w3.org/2000/svg" xmlns:xlink="http://www.w3.org/1999/xlink">
    <!-- Generator: Sketch 53.2 (72643) - https://sketchapp.com -->
    <title>vk</title>
    <desc>Created with Sketch.</desc>
    <g id="09_Personal_сabinet" stroke="none" stroke-width="1" fill="none" fill-rule="evenodd">
        <g id="09_BK24_RU_Personal_сabinet-768px" transform="translate(-92.000000, -1058.000000)">
            <g id="Group-4" transform="translate(0.000000, 126.000000)">
                <g id="Header-Copy-2" transform="translate(0.000000, 816.000000)">
                    <g id="Stacked-Group" transform="translate(92.000000, 104.000000)">
                        <g id="Group">
                            <g id="Atoms-/-Icons-/-24x24/Socials/Profile/vk" transform="translate(0.000000, 12.000000)">
                                <g id="Interface-/-20-px-/--vk">
                                    <rect id="Rectangle" x="0" y="0" width="24" height="24"></rect>
                                    <g id="VK_Blue_Logo">
                                        <path d="M8.39160839,0.151048951 L15.6923077,0.151048951 C22.3552448,0.151048951 23.9328671,1.72867133 23.9328671,8.39160839 L23.9328671,15.6923077 C23.9328671,22.3552448 22.3552448,23.9328671 15.6923077,23.9328671 L8.39160839,23.9328671 C1.72867133,23.9328671 0.151048951,22.3552448 0.151048951,15.6923077 L0.151048951,8.39160839 C0.151048951,1.72867133 1.72867133,0.151048951 8.39160839,0.151048951" id="Path" fill="#4680C2"></path>
                                        <path d="M19.6195804,8.34125874 C19.7370629,7.97202797 19.6195804,7.7034965 19.0993007,7.7034965 L17.3706294,7.7034965 C16.9342657,7.7034965 16.7328671,7.93846154 16.6153846,8.19020979 C16.6153846,8.19020979 15.7258741,10.3384615 14.4839161,11.7314685 C14.0811189,12.1342657 13.8965035,12.2685315 13.6783217,12.2685315 C13.5608392,12.2685315 13.4097902,12.1342657 13.4097902,11.765035 L13.4097902,8.32447552 C13.4097902,7.88811189 13.2755245,7.68671329 12.9062937,7.68671329 L10.1874126,7.68671329 C9.91888112,7.68671329 9.75104895,7.88811189 9.75104895,8.08951049 C9.75104895,8.50909091 10.372028,8.60979021 10.4391608,9.78461538 L10.4391608,12.3356643 C10.4391608,12.8895105 10.3384615,12.9902098 10.1202797,12.9902098 C9.53286713,12.9902098 8.10629371,10.8251748 7.25034965,8.35804196 C7.08251748,7.87132867 6.91468531,7.68671329 6.47832168,7.68671329 L4.73286713,7.68671329 C4.22937063,7.68671329 4.14545455,7.92167832 4.14545455,8.17342657 C4.14545455,8.62657343 4.73286713,10.9090909 6.88111888,13.9300699 C8.30769231,15.9944056 10.3384615,17.1020979 12.1678322,17.1020979 C13.2755245,17.1020979 13.4097902,16.8503497 13.4097902,16.4307692 L13.4097902,14.8699301 C13.4097902,14.3664336 13.5104895,14.2825175 13.8629371,14.2825175 C14.1146853,14.2825175 14.5678322,14.4167832 15.5916084,15.406993 C16.7664336,16.5818182 16.9678322,17.1188811 17.6223776,17.1188811 L19.351049,17.1188811 C19.8545455,17.1188811 20.0895105,16.8671329 19.9552448,16.3804196 C19.8041958,15.8937063 19.2335664,15.1888112 18.4951049,14.3496503 C18.0923077,13.8797203 17.4881119,13.3594406 17.3034965,13.1076923 C17.0517483,12.772028 17.1188811,12.6377622 17.3034965,12.3356643 C17.2867133,12.3356643 19.4013986,9.34825175 19.6195804,8.34125874" id="Path" fill="#FFFFFF"></path>
                                    </g>
                                </g>
                            </g>
                        </g>
                    </g>
                </g>
            </g>
        </g>
    </g>
</svg>